<?xml version="1.0" encoding="UTF-8"?>
<svg version="1.1" xmlns="http://www.w3.org/2000/svg" width="199" height="48" viewBox="0 0 829 200">
<path d="M0 0 C19.41513413 15.83036047 34.05409201 37.67987498 37 63 C38.93968261 90.4302756 34.56724201 116.47545518 16.4296875 138.05859375 C-0.33544615 157.04290323 -22.38232983 171.40063212 -48.21777344 173.22753906 C-73.92575327 174.37027566 -97.33480248 170.28540939 -118 154 C-118.95519531 152.88625 -118.95519531 152.88625 -119.9296875 151.75 C-123.79284058 147.26168937 -126.81034442 145.81850947 -132.671875 145.27734375 C-138.44754879 144.94856708 -144.21681799 144.89671608 -150 145 C-150 143.35 -150 141.7 -150 140 C-149.15695313 139.87882813 -148.31390625 139.75765625 -147.4453125 139.6328125 C-146.34960938 139.46523437 -145.25390625 139.29765625 -144.125 139.125 C-143.03445312 138.96257812 -141.94390625 138.80015625 -140.8203125 138.6328125 C-137.88067286 138.23743487 -137.88067286 138.23743487 -136 136 C-136.58007812 135.15179688 -137.16015625 134.30359375 -137.7578125 133.4296875 C-153.42438412 110.09957087 -159.3307236 83.69644666 -153.9152832 55.79711914 C-151.64260575 46.05956144 -147.45663705 36.9132741 -143 28 C-145.31 28.66 -147.62 29.32 -150 30 C-150.66 28.02 -151.32 26.04 -152 24 C-150.85402344 23.5875 -149.70804688 23.175 -148.52734375 22.75 C-139.78624508 19.46992245 -133.47421337 16.85158604 -128 9 C-118.37873803 -2.51396924 -103.93044476 -10.04417155 -90 -15 C-89.3699707 -15.22445801 -88.73994141 -15.44891602 -88.09082031 -15.68017578 C-58.61139192 -25.5749968 -24.39298608 -18.65141304 0 0 Z " fill="#B7CAD5" transform="translate(163,27)"/>
<path d="M0 0 C0.33 8.58 0.66 17.16 1 26 C2.464375 23.855 3.92875 21.71 5.4375 19.5 C11.72557883 10.55177918 18.86566261 2.41516877 30 0 C36.99219108 -0.95402953 41.50398466 0.07899894 47.1484375 4.3671875 C50.19957995 7.05785743 51.71371074 9.0253382 52.3046875 13.1015625 C52.61532179 18.5650714 51.6522266 21.73906897 48 26 C45.4592833 28.82301856 43.94741838 29.00848091 40.125 29.625 C34.79947874 29.50115067 30.49681987 27.05000728 25.96142578 24.49072266 C22.48737868 22.56069649 19.98980748 21.3725431 16 22 C9.23674373 25.46521894 4.15024559 33.38552358 1 40 C-0.06513376 45.71305573 -0.01224224 51.25112208 0.11328125 57.04296875 C0.1206104 58.6633445 0.1247972 60.28373717 0.12602234 61.90412903 C0.13671857 65.27919138 0.17351529 68.65252705 0.23168945 72.02709961 C0.30541854 76.33081862 0.33094604 80.63306511 0.33910847 84.9373579 C0.34773212 88.27568355 0.37290206 91.61371138 0.40386009 94.95189857 C0.41832706 96.53814604 0.42986444 98.12442327 0.43828773 99.71071434 C0.33400411 113.63361093 0.33400411 113.63361093 6.3125 125.875 C11.74126412 130.16751116 16.2541774 131.41846357 23 132 C23 133.32 23 134.64 23 136 C0.56 136 -21.88 136 -45 136 C-45 134.35 -45 132.7 -45 131 C-44.15695313 130.87882813 -43.31390625 130.75765625 -42.4453125 130.6328125 C-41.34960938 130.46523437 -40.25390625 130.29765625 -39.125 130.125 C-38.03445312 129.96257812 -36.94390625 129.80015625 -35.8203125 129.6328125 C-32.88067286 129.23743487 -32.88067286 129.23743487 -31 127 C-31.58007812 126.15179688 -32.16015625 125.30359375 -32.7578125 124.4296875 C-48.42438412 101.09957087 -54.3307236 74.69644666 -48.9152832 46.79711914 C-46.64260575 37.05956144 -42.45663705 27.9132741 -38 19 C-40.31 19.66 -42.62 20.32 -45 21 C-45.66 19.02 -46.32 17.04 -47 15 C-38.37704274 11.46044549 -29.72001951 8.11476509 -20.90063477 5.09326172 C-20.23217529 4.86268066 -19.56371582 4.63209961 -18.875 4.39453125 C-18.22273438 4.16975098 -17.57046875 3.9449707 -16.8984375 3.71337891 C-15.05636805 3.02118151 -13.27487836 2.174021 -11.5 1.32421875 C-8 0 -8 0 0 0 Z " fill="#FEFEFE" transform="translate(58,36)"/>
<path d="M0 0 C6.81348437 -0.07642878 13.62685705 -0.12875823 20.44067383 -0.16479492 C22.75582002 -0.17982729 25.070938 -0.2002587 27.38598633 -0.22631836 C30.72484324 -0.26294596 34.0633217 -0.27978241 37.40234375 -0.29296875 C38.94038918 -0.31619453 38.94038918 -0.31619453 40.50950623 -0.33988953 C50.02521826 -0.34208897 57.34352895 1.46910022 64.3359375 8.11328125 C68.23602349 12.53520974 69.54149579 17.25746426 69.28515625 23.01953125 C68.40839215 29.10883811 65.52690446 33.0389586 61 37 C60.01 37.66 59.02 38.32 58 39 C58.59167969 39.27972656 59.18335938 39.55945313 59.79296875 39.84765625 C65.2826299 42.63278613 69.41721921 45.25792485 72 51 C73.88744784 57.44091577 72.89518258 63.02939 70 69 C65.84063711 75.29846381 60.2735286 78.44794066 53 80 C41.38402447 81.22851183 29.72677194 81.12121464 18.0625 81.0625 C16.3001315 81.05746883 14.53776158 81.05290882 12.77539062 81.04882812 C8.51689134 81.03796467 4.25846191 81.02079171 0 81 C0 80.01 0 79.02 0 78 C0.63808594 77.81824219 1.27617187 77.63648438 1.93359375 77.44921875 C2.75988281 77.19785156 3.58617187 76.94648438 4.4375 76.6875 C5.26121094 76.44386719 6.08492188 76.20023437 6.93359375 75.94921875 C7.61550781 75.63597656 8.29742187 75.32273437 9 75 C10.09555859 71.71332424 10.1269393 69.29223384 10.12939453 65.83203125 C10.13254669 64.56061279 10.13569885 63.28919434 10.13894653 61.97924805 C10.13715664 60.59033168 10.13510566 59.20141563 10.1328125 57.8125 C10.13348613 56.38907861 10.13445665 54.96565733 10.13571167 53.54223633 C10.13718586 50.55972193 10.13504302 47.57723748 10.13037109 44.59472656 C10.12467397 40.77134313 10.12795446 36.9480299 10.13394356 33.12464905 C10.13755668 30.18558218 10.13640712 27.24653197 10.13381577 24.3074646 C10.13314858 22.89765413 10.13396766 21.48784215 10.13629532 20.07803345 C10.13883408 18.10801217 10.13427869 16.1379856 10.12939453 14.16796875 C10.12859894 13.04672607 10.12780334 11.9254834 10.12698364 10.77026367 C10.12202556 7.91198362 10.12202556 7.91198362 9 5 C6.89415562 4.19436362 6.89415562 4.19436362 4.4375 3.8125 C3.61121094 3.65394531 2.78492188 3.49539062 1.93359375 3.33203125 C1.29550781 3.22246094 0.65742188 3.11289063 0 3 C0 2.01 0 1.02 0 0 Z M23 6 C23 15.9 23 25.8 23 36 C28.011875 36.0928125 28.011875 36.0928125 33.125 36.1875 C34.16672363 36.21481201 35.20844727 36.24212402 36.28173828 36.27026367 C41.61336181 36.31794986 45.42317078 36.06089054 50 33 C54.44427138 28.07526685 55.36172836 25.04605317 55.27734375 18.5390625 C54.86623556 14.77539598 53.5171364 12.78209813 51 10 C45.06881616 5.52135098 40.70132888 4.83883156 33.4375 4.875 C32.26670898 4.86919922 32.26670898 4.86919922 31.07226562 4.86328125 C26.90330125 4.76516735 26.90330125 4.76516735 23 6 Z M23 42 C23 52.56 23 63.12 23 74 C27.12419852 75.37473284 30.99251509 75.22391707 35.3125 75.25 C36.15490234 75.270625 36.99730469 75.29125 37.86523438 75.3125 C44.50014614 75.35400062 48.62647546 74.0498621 53.75 69.625 C57.21569208 65.58169258 58.22848038 62.83819462 57.875 57.5625 C57.07675101 52.27300397 55.41179488 48.99487629 51.21484375 45.5234375 C42.67045138 40.12856542 32.68472144 41.67717595 23 42 Z " fill="#000000" transform="translate(483,71)"/>
<path d="M0 0 C3.87981918 -0.60352743 5.52048381 -0.31967746 8.8125 1.875 C14.32142583 7.22652795 13.03574469 16.36241864 13.14960194 23.59393692 C13.19847167 27.94278682 13.22209408 32.2915429 13.23828125 36.640625 C13.24235678 37.57060051 13.2464323 38.50057602 13.25063133 39.4587326 C13.27135671 44.36864489 13.28572382 49.27853024 13.29516602 54.18847656 C13.30628513 59.24451066 13.34078647 64.30011134 13.38033772 69.35599136 C13.40649093 73.26284595 13.41485602 77.16959603 13.41844749 81.07653046 C13.42330594 82.94080326 13.4348987 84.80507164 13.45348549 86.66925812 C13.47788076 89.27497644 13.47691307 91.87955359 13.4699707 94.48535156 C13.48278076 95.24706665 13.49559082 96.00878174 13.50878906 96.7935791 C13.45581676 102.26597472 12.02695349 105.4412998 9 110 C1.97233989 107.43880831 -1.49431908 97.97011031 -4.7109375 91.625 C-14.806678 69.48611729 -17.44550693 42.1631719 -9 19 C-6.49415308 12.45784095 -3.89609014 5.8441352 0 0 Z " fill="#B7CAD5" transform="translate(21,54)"/>
<path d="M0 0 C0.33 16.83 0.66 33.66 1 51 C11.20551015 43.09245136 11.20551015 43.09245136 18 33 C16.68 33 15.36 33 14 33 C14 32.01 14 31.02 14 30 C22.25 30 30.5 30 39 30 C39 30.66 39 31.32 39 32 C38.15272339 32.11432373 38.15272339 32.11432373 37.28833008 32.23095703 C30.95369288 33.32288423 27.33168044 35.52792202 22.6875 39.875 C22.09388672 40.40480469 21.50027344 40.93460938 20.88867188 41.48046875 C17.83115081 44.22780652 14.87495166 47.06116052 12 50 C13.44368663 54.35485691 15.64124604 57.22800818 18.625 60.6875 C19.52573922 61.74003076 20.42546342 62.79343094 21.32421875 63.84765625 C21.7732959 64.37246582 22.22237305 64.89727539 22.68505859 65.43798828 C25.31738727 68.56491714 27.8049619 71.80890701 30.30859375 75.0390625 C33.76303924 79.04398544 36.93653193 79.4267772 42 80 C42 81.65 42 83.3 42 85 C32.76 85 23.52 85 14 85 C14 83.68 14 82.36 14 81 C15.32 81 16.64 81 18 81 C15.47429797 75.19745779 11.73375876 70.55705464 7.8125 65.625 C7.15830078 64.79355469 6.50410156 63.96210938 5.83007812 63.10546875 C4.22472249 61.06654992 2.61462533 59.03158027 1 57 C0.9417747 60.08325358 0.90632866 63.16636505 0.875 66.25 C0.85824219 67.12269531 0.84148438 67.99539062 0.82421875 68.89453125 C0.81777344 69.73886719 0.81132813 70.58320313 0.8046875 71.453125 C0.79421387 72.22817383 0.78374023 73.00322266 0.77294922 73.80175781 C1.03385053 76.32773141 1.58522289 77.89213976 3 80 C6.05908413 80.81584568 6.05908413 80.81584568 9 81 C9 82.32 9 83.64 9 85 C-0.57 85 -10.14 85 -20 85 C-20 83.68 -20 82.36 -20 81 C-18.2984375 80.7834375 -18.2984375 80.7834375 -16.5625 80.5625 C-13.19222799 80.38828522 -13.19222799 80.38828522 -12 79 C-11.90570658 76.82194281 -11.88257462 74.6407872 -11.88647461 72.46069336 C-11.88632858 71.77779739 -11.88618256 71.09490143 -11.8860321 70.39131165 C-11.88673124 68.12412386 -11.8945236 65.85701726 -11.90234375 63.58984375 C-11.90420793 62.02185613 -11.90563183 60.45386793 -11.90663147 58.88587952 C-11.91045666 54.75123497 -11.92028694 50.61662534 -11.93133545 46.48199463 C-11.94154956 42.26599602 -11.94612909 38.04999178 -11.95117188 33.83398438 C-11.96190921 25.55597353 -11.97898564 17.2779911 -12 9 C-14.31 9 -16.62 9 -19 9 C-19.33 7.68 -19.66 6.36 -20 5 C-17.79567015 4.15450362 -15.58751467 3.32357186 -13.375 2.5 C-11.53035156 1.80390625 -11.53035156 1.80390625 -9.6484375 1.09375 C-6 0 -6 0 0 0 Z " fill="#000000" transform="translate(668,67)"/>
<path d="M0 0 C0.33 16.83 0.66 33.66 1 51 C11.20551015 43.09245136 11.20551015 43.09245136 18 33 C16.68 33 15.36 33 14 33 C14 32.01 14 31.02 14 30 C22.25 30 30.5 30 39 30 C39 30.66 39 31.32 39 32 C38.15272339 32.11432373 38.15272339 32.11432373 37.28833008 32.23095703 C30.95369288 33.32288423 27.33168044 35.52792202 22.6875 39.875 C22.09388672 40.40480469 21.50027344 40.93460938 20.88867188 41.48046875 C17.83115081 44.22780652 14.87495166 47.06116052 12 50 C13.44368663 54.35485691 15.64124604 57.22800818 18.625 60.6875 C19.52573922 61.74003076 20.42546342 62.79343094 21.32421875 63.84765625 C21.7732959 64.37246582 22.22237305 64.89727539 22.68505859 65.43798828 C25.31738727 68.56491714 27.8049619 71.80890701 30.30859375 75.0390625 C33.76303924 79.04398544 36.93653193 79.4267772 42 80 C42 81.65 42 83.3 42 85 C32.76 85 23.52 85 14 85 C14 83.68 14 82.36 14 81 C15.32 81 16.64 81 18 81 C15.47429797 75.19745779 11.73375876 70.55705464 7.8125 65.625 C7.15830078 64.79355469 6.50410156 63.96210938 5.83007812 63.10546875 C4.22472249 61.06654992 2.61462533 59.03158027 1 57 C0.9417747 60.08325358 0.90632866 63.16636505 0.875 66.25 C0.85824219 67.12269531 0.84148437 67.99539062 0.82421875 68.89453125 C0.81777344 69.73886719 0.81132812 70.58320313 0.8046875 71.453125 C0.79421387 72.22817383 0.78374023 73.00322266 0.77294922 73.80175781 C1.03385053 76.32773141 1.58522289 77.89213976 3 80 C6.05908413 80.81584568 6.05908413 80.81584568 9 81 C9 82.32 9 83.64 9 85 C-0.57 85 -10.14 85 -20 85 C-20 83.68 -20 82.36 -20 81 C-18.2984375 80.7834375 -18.2984375 80.7834375 -16.5625 80.5625 C-13.19222799 80.38828522 -13.19222799 80.38828522 -12 79 C-11.90570658 76.82194281 -11.88257462 74.6407872 -11.88647461 72.46069336 C-11.88632858 71.77779739 -11.88618256 71.09490143 -11.8860321 70.39131165 C-11.88673124 68.12412386 -11.8945236 65.85701726 -11.90234375 63.58984375 C-11.90420793 62.02185613 -11.90563183 60.45386793 -11.90663147 58.88587952 C-11.91045666 54.75123497 -11.92028694 50.61662534 -11.93133545 46.48199463 C-11.94154956 42.26599602 -11.94612909 38.04999178 -11.95117188 33.83398438 C-11.96190921 25.55597353 -11.97898564 17.2779911 -12 9 C-14.31 9 -16.62 9 -19 9 C-19.33 7.68 -19.66 6.36 -20 5 C-17.79567015 4.15450362 -15.58751467 3.32357186 -13.375 2.5 C-11.53035156 1.80390625 -11.53035156 1.80390625 -9.6484375 1.09375 C-6 0 -6 0 0 0 Z " fill="#000000" transform="translate(380,67)"/>
<path d="M0 0 C20.13 0 40.26 0 61 0 C61.495 9.405 61.495 9.405 62 19 C60.68 18.67 59.36 18.34 58 18 C56.78158007 15.80771755 56.05055906 13.59089888 55.22265625 11.2265625 C53.60449185 8.27974555 51.99625272 7.49263201 49 6 C46.10966551 5.50294226 46.10966551 5.50294226 43.04296875 5.48828125 C42.04031982 5.45516846 41.0376709 5.42205566 40.00463867 5.38793945 C38.11515503 5.35059692 38.11515503 5.35059692 36.1875 5.3125 C30.1546875 5.1578125 30.1546875 5.1578125 24 5 C24 15.56 24 26.12 24 37 C34.72767549 36.86231095 34.72767549 36.86231095 45 34 C46.44985223 31.43124007 47.30213557 28.85792099 48 26 C49.32 26 50.64 26 52 26 C52 34.91 52 43.82 52 53 C50.68 53 49.36 53 48 53 C47.54427083 50.98177083 47.08854167 48.96354167 46.6328125 46.9453125 C46.09525572 44.79280036 46.09525572 44.79280036 44 43 C41.87139338 42.63047951 41.87139338 42.63047951 39.4296875 42.5859375 C38.53378906 42.54726562 37.63789063 42.50859375 36.71484375 42.46875 C35.77769531 42.4378125 34.84054688 42.406875 33.875 42.375 C32.93011719 42.33632812 31.98523438 42.29765625 31.01171875 42.2578125 C28.67467625 42.16338654 26.33764499 42.07781606 24 42 C24.06910558 46.03904921 24.15718016 50.07720578 24.26245117 54.11547852 C24.29559806 55.48775958 24.32366171 56.86017362 24.34643555 58.23266602 C24.38016766 60.21137766 24.4340149 62.18971376 24.48828125 64.16796875 C24.51446533 65.35672607 24.54064941 66.5454834 24.56762695 67.77026367 C25.03532429 71.26386505 25.8997838 73.19542732 28 76 C30.00588475 77.00934681 30.00588475 77.00934681 32.1875 77.3125 C33.445625 77.539375 34.70375 77.76625 36 78 C36 78.66 36 79.32 36 80 C24.12 80 12.24 80 0 80 C0 79.34 0 78.68 0 78 C0.71027344 77.81824219 1.42054688 77.63648438 2.15234375 77.44921875 C3.07144531 77.19785156 3.99054688 76.94648438 4.9375 76.6875 C5.85402344 76.44386719 6.77054688 76.20023437 7.71484375 75.94921875 C8.46894531 75.63597656 9.22304687 75.32273437 10 75 C11.09555859 71.71332424 11.1269393 69.29223384 11.12939453 65.83203125 C11.13254669 64.56061279 11.13569885 63.28919434 11.13894653 61.97924805 C11.13715664 60.59033168 11.13510566 59.20141563 11.1328125 57.8125 C11.13348613 56.38907861 11.13445665 54.96565733 11.13571167 53.54223633 C11.13718586 50.55972193 11.13504302 47.57723748 11.13037109 44.59472656 C11.12467397 40.77134313 11.12795446 36.9480299 11.13394356 33.12464905 C11.13755668 30.18558218 11.13640712 27.24653197 11.13381577 24.3074646 C11.13314858 22.89765413 11.13396766 21.48784215 11.13629532 20.07803345 C11.13883408 18.10801217 11.13427869 16.1379856 11.12939453 14.16796875 C11.12859894 13.04672607 11.12780334 11.9254834 11.12698364 10.77026367 C11.12202556 7.91198362 11.12202556 7.91198362 10 5 C6.7 4.34 3.4 3.68 0 3 C0 2.01 0 1.02 0 0 Z " fill="#000000" transform="translate(207,71)"/>
<path d="M0 0 C0.72018311 -0.01853027 1.44036621 -0.03706055 2.18237305 -0.05615234 C7.66304759 0.00780244 10.93379686 1.3650137 15.4375 4.5 C18.80936454 9.55779681 18.61979882 14.70828728 18.75390625 20.64453125 C18.77468735 21.41431808 18.79546844 22.18410492 18.81687927 22.97721863 C18.88196049 25.42222667 18.94106591 27.86733683 19 30.3125 C19.04322468 31.97592177 19.08684021 33.63933344 19.13085938 35.30273438 C19.23759907 39.36838648 19.33898171 43.43414071 19.4375 47.5 C22.20026177 46.97731534 24.7635876 46.39130413 27.4375 45.5 C27.35587143 48.27537132 26.85135605 50.02212203 25.0234375 52.1328125 C21.41551908 55.42285265 18.51878755 57.61046277 13.4375 57.5 C10.625 56.375 10.625 56.375 8.4375 54.5 C7.80078125 51.8828125 7.80078125 51.8828125 7.4375 49.5 C6.71304687 49.99371094 5.98859375 50.48742187 5.2421875 50.99609375 C4.27539062 51.63675781 3.30859375 52.27742188 2.3125 52.9375 C1.36117188 53.57558594 0.40984375 54.21367187 -0.5703125 54.87109375 C-4.97012124 57.26628989 -8.21342007 57.73668069 -13.125 56.875 C-17.48675997 55.13029601 -20.43886495 52.74727011 -22.5625 48.5 C-22.97395444 44.02938922 -23.11718391 39.88670979 -21.4375 35.6875 C-17.03795046 30.5546922 -12.14012944 27.48800276 -6.0625 24.75 C-5.10537109 24.29560547 -5.10537109 24.29560547 -4.12890625 23.83203125 C-0.28826695 22.06486593 3.24050978 20.99223959 7.4375 20.5 C7.18162595 18.72694336 6.90722261 16.95655392 6.625 15.1875 C6.47417969 14.20136719 6.32335937 13.21523437 6.16796875 12.19921875 C5.38863329 9.31942835 4.86968497 8.1894898 2.4375 6.5 C0.49047966 6.06526367 0.49047966 6.06526367 -1.5625 6.1875 C-2.243125 6.19136719 -2.92375 6.19523437 -3.625 6.19921875 C-5.88441109 6.41091707 -5.88441109 6.41091707 -8.5625 8.5 C-9.06930044 10.59632445 -9.06930044 10.59632445 -9.125 12.9375 C-9.31664658 16.46263551 -9.5072428 17.4171142 -11.5625 20.5 C-14.30534029 21.8241298 -15.40421783 21.55395983 -18.3125 20.5625 C-20.5625 18.5 -20.5625 18.5 -21.125 14.6875 C-20.81396962 10.34104985 -19.53116792 7.76553471 -16.5625 4.5 C-11.21918574 0.51870702 -6.47938616 0.10451747 0 0 Z M-1.5 28.75 C-2.45036133 29.20052734 -2.45036133 29.20052734 -3.41992188 29.66015625 C-7.01724081 31.43801103 -9.60883138 32.93701442 -11.5625 36.5 C-12.08201981 40.58194133 -11.94061124 42.78915087 -10 46.4375 C-7.66401514 48.75579782 -7.66401514 48.75579782 -4.3125 49.125 C-0.41436381 48.47531064 2.57525766 47.96895601 5.90234375 45.80859375 C9.59274868 40.25890084 7.9133938 31.86507953 7.4375 25.5 C4.13737453 25.5 1.40433269 27.31104851 -1.5 28.75 Z " fill="#000000" transform="translate(333.5625,95.5)"/>
<path d="M0 0 C8.58 0 17.16 0 26 0 C26 0.99 26 1.98 26 3 C24.35 3.33 22.7 3.66 21 4 C21.32448004 11.29556739 24.74844475 17.05557646 28.0625 23.4375 C28.91424805 25.1071582 28.91424805 25.1071582 29.78320312 26.81054688 C31.17983384 29.54512635 32.58560508 32.27457836 34 35 C37.09607283 30.35589075 38.97834243 25.20064816 41.125 20.0625 C41.59292969 18.96486328 42.06085938 17.86722656 42.54296875 16.73632812 C42.98511719 15.67994141 43.42726563 14.62355469 43.8828125 13.53515625 C44.28902832 12.569729 44.69524414 11.60430176 45.11376953 10.60961914 C46.2143763 7.82807428 46.2143763 7.82807428 46 4 C44.68 3.67 43.36 3.34 42 3 C42 2.01 42 1.02 42 0 C47.94 0 53.88 0 60 0 C60 0.99 60 1.98 60 3 C59.27554688 3.34160156 58.55109375 3.68320313 57.8046875 4.03515625 C53.38811945 7.12921437 52.1441007 11.55155238 50.125 16.4375 C49.66593262 17.5112085 49.20686523 18.58491699 48.73388672 19.69116211 C46.1514919 25.76221173 43.64130221 31.86310464 41.12454224 37.96159363 C40.45744822 39.57751395 39.78970173 41.19316507 39.12130737 42.80854797 C37.47463865 46.78836005 35.83590751 50.77096059 34.21533203 54.76147461 C26.10882372 74.58526497 26.10882372 74.58526497 19.03125 79.1484375 C15.06399967 80.81163091 11.17683964 80.90074455 7 80 C3.78907233 77.4006776 3.11437705 75.95314212 2.625 71.875 C3 69 3 69 5 66 C8.18973967 65.88794826 11.23899768 66.03142126 14.4140625 66.29296875 C16.67224792 66.44510709 16.67224792 66.44510709 20 66 C22.90175117 63.22948381 24.65640867 60.13189141 26.3125 56.5 C26.83263672 55.40171875 26.83263672 55.40171875 27.36328125 54.28125 C28.94643932 48.60907629 25.3972692 43.32705143 22.921875 38.375 C22.51342346 37.5504834 22.10497192 36.7259668 21.68414307 35.87646484 C20.81970521 34.13680476 19.95209905 32.39871588 19.08154297 30.66210938 C17.7574004 28.01479538 16.45053006 25.35942713 15.14453125 22.703125 C14.30052126 21.00989682 13.45550198 19.31717129 12.609375 17.625 C12.22271667 16.83528809 11.83605835 16.04557617 11.43768311 15.23193359 C8.71455285 9.85292524 6.01379186 5.00459729 0 3 C0 2.01 0 1.02 0 0 Z " fill="#000000" transform="translate(420,97)"/>
<path d="M0 0 C15.18 0 30.36 0 46 0 C44.87588545 5.62057277 44.87588545 5.62057277 42.33203125 8.7578125 C41.77507568 9.45672607 41.21812012 10.15563965 40.64428711 10.87573242 C40.03979736 11.61799072 39.43530762 12.36024902 38.8125 13.125 C37.53691032 14.72615236 36.26354311 16.32907736 34.9921875 17.93359375 C34.33444336 18.7622998 33.67669922 19.59100586 32.99902344 20.44482422 C29.72562449 24.62892209 26.57795566 28.90318094 23.4375 33.1875 C22.86684814 33.96432129 22.29619629 34.74114258 21.70825195 35.54150391 C18.43852964 40.00404338 15.20647653 44.49182536 12 49 C21.27387207 49.19365394 29.94154988 49.30055876 39 47 C39.99 43.7 40.98 40.4 42 37 C42.99 37 43.98 37 45 37 C45 42.94 45 48.88 45 55 C28.83 55 12.66 55 -4 55 C-2.87575809 48.25454857 -2.87575809 48.25454857 -0.33203125 45.14453125 C0.22492432 44.44884033 0.78187988 43.75314941 1.35571289 43.03637695 C1.96020264 42.30249756 2.56469238 41.56861816 3.1875 40.8125 C4.4631624 39.22053029 5.73652709 37.62671719 7.0078125 36.03125 C7.66555664 35.20882812 8.32330078 34.38640625 9.00097656 33.5390625 C12.28483718 29.3680622 15.4261854 25.09496208 18.5625 20.8125 C19.13315186 20.03559814 19.70380371 19.25869629 20.29174805 18.45825195 C23.56166291 13.99593362 26.79356154 9.50812111 30 5 C26.22782127 5.02275892 22.45868897 5.10000662 18.6875 5.1875 C17.61564453 5.19330078 16.54378906 5.19910156 15.43945312 5.20507812 C14.41142578 5.23408203 13.38339844 5.26308594 12.32421875 5.29296875 C11.37635498 5.3086792 10.42849121 5.32438965 9.4519043 5.34057617 C6.77733929 5.79088706 6.77733929 5.79088706 5.21020508 8.3684082 C4.02514597 10.94532007 3.39992324 13.20053733 3 16 C2.01 16 1.02 16 0 16 C0 10.72 0 5.44 0 0 Z " fill="#000000" transform="translate(781,97)"/>
<path d="M0 0 C15.18 0 30.36 0 46 0 C44.87588545 5.62057277 44.87588545 5.62057277 42.33203125 8.7578125 C41.77507568 9.45672607 41.21812012 10.15563965 40.64428711 10.87573242 C40.03979736 11.61799072 39.43530762 12.36024902 38.8125 13.125 C37.53691032 14.72615236 36.26354311 16.32907736 34.9921875 17.93359375 C34.33444336 18.7622998 33.67669922 19.59100586 32.99902344 20.44482422 C29.72562449 24.62892209 26.57795566 28.90318094 23.4375 33.1875 C22.86684814 33.96432129 22.29619629 34.74114258 21.70825195 35.54150391 C18.43852964 40.00404338 15.20647653 44.49182536 12 49 C21.27387207 49.19365394 29.94154988 49.30055876 39 47 C39.99 43.7 40.98 40.4 42 37 C42.99 37 43.98 37 45 37 C45 42.94 45 48.88 45 55 C28.83 55 12.66 55 -4 55 C-2.87575809 48.25454857 -2.87575809 48.25454857 -0.33203125 45.14453125 C0.22492432 44.44884033 0.78187988 43.75314941 1.35571289 43.03637695 C1.96020264 42.30249756 2.56469238 41.56861816 3.1875 40.8125 C4.4631624 39.22053029 5.73652709 37.62671719 7.0078125 36.03125 C7.66555664 35.20882812 8.32330078 34.38640625 9.00097656 33.5390625 C12.28483718 29.3680622 15.4261854 25.09496208 18.5625 20.8125 C19.13315186 20.03559814 19.70380371 19.25869629 20.29174805 18.45825195 C23.56166291 13.99593362 26.79356154 9.50812111 30 5 C26.22782127 5.02275892 22.45868897 5.10000662 18.6875 5.1875 C17.61564453 5.19330078 16.54378906 5.19910156 15.43945312 5.20507812 C14.41142578 5.23408203 13.38339844 5.26308594 12.32421875 5.29296875 C11.37635498 5.3086792 10.42849121 5.32438965 9.4519043 5.34057617 C6.77733929 5.79088706 6.77733929 5.79088706 5.21020508 8.3684082 C4.02514597 10.94532007 3.39992324 13.20053733 3 16 C2.01 16 1.02 16 0 16 C0 10.72 0 5.44 0 0 Z " fill="#000000" transform="translate(601,97)"/>
<path d="M0 0 C0.33 26.4 0.66 52.8 1 80 C3.64 80.33 6.28 80.66 9 81 C9 82.32 9 83.64 9 85 C-0.24 85 -9.48 85 -19 85 C-19 83.68 -19 82.36 -19 81 C-18.030625 80.87625 -17.06125 80.7525 -16.0625 80.625 C-14.5465625 80.315625 -14.5465625 80.315625 -13 80 C-11.55042544 77.10085089 -11.88067076 74.585717 -11.88647461 71.34716797 C-11.88632858 70.66412598 -11.88618256 69.98108398 -11.8860321 69.27734375 C-11.88672977 67.0155929 -11.89451535 64.753924 -11.90234375 62.4921875 C-11.90420845 60.92562912 -11.90563211 59.35907016 -11.90663147 57.79251099 C-11.91045257 53.66610102 -11.9202794 49.53972616 -11.93133545 45.41333008 C-11.9415583 41.20394363 -11.94613097 36.99455153 -11.95117188 32.78515625 C-11.96190202 24.52342138 -11.97897358 16.26171505 -12 8 C-14.31 8.33 -16.62 8.66 -19 9 C-19.33 7.68 -19.66 6.36 -20 5 C-17.79567015 4.15450362 -15.58751467 3.32357186 -13.375 2.5 C-11.53035156 1.80390625 -11.53035156 1.80390625 -9.6484375 1.09375 C-6 0 -6 0 0 0 Z " fill="#000000" transform="translate(296,67)"/>
<path d="M0 0 C0.99 0 1.98 0 3 0 C3 5.94 3 11.88 3 18 C7.29 18 11.58 18 16 18 C16 19.65 16 21.3 16 23 C11.71 23 7.42 23 3 23 C3.11821673 28.35700426 3.24246299 33.71382175 3.37231445 39.07055664 C3.41564287 40.89310904 3.45731947 42.71570148 3.49731445 44.53833008 C3.55506762 47.15718661 3.61874756 49.77584195 3.68359375 52.39453125 C3.70030624 53.21025101 3.71701874 54.02597076 3.73423767 54.8664093 C3.82013245 58.14179544 3.95752134 60.87256401 5 64 C7.91652174 64.16681109 7.91652174 64.16681109 11 64 C11.66 63.34 12.32 62.68 13 62 C14.32 62 15.64 62 17 62 C15.75905393 66.96378429 14.366661 69.28296649 10 72 C6.1645046 73.53419816 3.88402844 74.17333891 -0.1875 73.375 C-3.18433938 71.90987852 -4.92974024 70.60699378 -7 68 C-7.89202082 65.2135012 -8.12252231 62.69722751 -8.11352539 59.78222656 C-8.11341209 58.5514035 -8.11341209 58.5514035 -8.11329651 57.29571533 C-8.10813522 56.41953552 -8.10297394 55.54335571 -8.09765625 54.640625 C-8.0962413 53.73624695 -8.09482635 52.8318689 -8.09336853 51.90008545 C-8.08777911 49.01668973 -8.07522853 46.13337218 -8.0625 43.25 C-8.05748363 41.29296987 -8.05292096 39.33593853 -8.04882812 37.37890625 C-8.03781313 32.58590747 -8.02055574 27.79296698 -8 23 C-10.64 23 -13.28 23 -16 23 C-16 21.68 -16 20.36 -16 19 C-14.42578125 17.54296875 -14.42578125 17.54296875 -12.3125 16.1875 C-6.22899239 11.92044608 -3.10288718 6.69570392 0 0 Z " fill="#000000" transform="translate(759,79)"/>
<path d="M0 0 C0.33 16.83 0.66 33.66 1 51 C4.465 51.495 4.465 51.495 8 52 C8 53.32 8 54.64 8 56 C-0.91 56 -9.82 56 -19 56 C-19 54.68 -19 53.36 -19 52 C-18.030625 51.87625 -17.06125 51.7525 -16.0625 51.625 C-15.051875 51.41875 -14.04125 51.2125 -13 51 C-11.36943043 47.73886087 -11.85828477 44.14520683 -11.8671875 40.5625 C-11.86623077 39.72662354 -11.86527405 38.89074707 -11.86428833 38.02954102 C-11.86360732 36.26090418 -11.86545609 34.49226485 -11.86962891 32.72363281 C-11.87497829 30.01101079 -11.86968125 27.29855435 -11.86328125 24.5859375 C-11.86394205 22.8697913 -11.86522324 21.1536452 -11.8671875 19.4375 C-11.86516327 18.62289307 -11.86313904 17.80828613 -11.86105347 16.96899414 C-11.77409175 12.85240837 -11.77409175 12.85240837 -13 9 C-14.98 9 -16.96 9 -19 9 C-19.33 7.68 -19.66 6.36 -20 5 C-17.79567015 4.15450362 -15.58751467 3.32357186 -13.375 2.5 C-11.53035156 1.80390625 -11.53035156 1.80390625 -9.6484375 1.09375 C-6 0 -6 0 0 0 Z " fill="#000000" transform="translate(731,96)"/>
<path d="M0 0 C0.33 16.83 0.66 33.66 1 51 C4.465 51.495 4.465 51.495 8 52 C8 53.32 8 54.64 8 56 C-0.91 56 -9.82 56 -19 56 C-19 54.68 -19 53.36 -19 52 C-18.030625 51.87625 -17.06125 51.7525 -16.0625 51.625 C-15.051875 51.41875 -14.04125 51.2125 -13 51 C-11.36943043 47.73886087 -11.85828477 44.14520683 -11.8671875 40.5625 C-11.86623077 39.72662354 -11.86527405 38.89074707 -11.86428833 38.02954102 C-11.86360732 36.26090418 -11.86545609 34.49226485 -11.86962891 32.72363281 C-11.87497829 30.01101079 -11.86968125 27.29855435 -11.86328125 24.5859375 C-11.86394205 22.8697913 -11.86522324 21.1536452 -11.8671875 19.4375 C-11.86516327 18.62289307 -11.86313904 17.80828613 -11.86105347 16.96899414 C-11.77409175 12.85240837 -11.77409175 12.85240837 -13 9 C-14.98 9 -16.96 9 -19 9 C-19.33 7.68 -19.66 6.36 -20 5 C-17.79567015 4.15450362 -15.58751467 3.32357186 -13.375 2.5 C-11.53035156 1.80390625 -11.53035156 1.80390625 -9.6484375 1.09375 C-6 0 -6 0 0 0 Z " fill="#000000" transform="translate(584,96)"/>
<path d="M0 0 C3.5 0.5 3.5 0.5 5.4375 2.125 C6.80225246 5.17562315 6.91407022 7.18743824 6.5 10.5 C5.1413286 13.01354208 4.17574498 14.16212751 1.625 15.4375 C-1.45322904 15.52803615 -3.05729426 14.282515 -5.5 12.5 C-6.90457737 9.69084526 -6.74895157 7.61189466 -6.5 4.5 C-4.87055931 0.85772081 -4.00024745 0.57146392 0 0 Z " fill="#000000" transform="translate(725.5,66.5)"/>
<path d="M0 0 C3.5 0.5 3.5 0.5 5.4375 2.125 C6.80225246 5.17562315 6.91407022 7.18743824 6.5 10.5 C5.1413286 13.01354208 4.17574498 14.16212751 1.625 15.4375 C-1.45322904 15.52803615 -3.05729426 14.282515 -5.5 12.5 C-6.90457737 9.69084526 -6.74895157 7.61189466 -6.5 4.5 C-4.87055931 0.85772081 -4.00024745 0.57146392 0 0 Z " fill="#000000" transform="translate(578.5,66.5)"/>
</svg>
